<?xml version="1.0" encoding="UTF-8" standalone="no"?>
<!-- Created with Inkscape (http://www.inkscape.org/) -->

<svg
   width="261.27359mm"
   height="147.63875mm"
   viewBox="0 0 261.27359 147.63874"
   version="1.1"
   id="svg5"
   xml:space="preserve"
   inkscape:version="1.2.2 (b0a8486541, 2022-12-01)"
   sodipodi:docname="eoapi-k8s.svg"
   xmlns:inkscape="http://www.inkscape.org/namespaces/inkscape"
   xmlns:sodipodi="http://sodipodi.sourceforge.net/DTD/sodipodi-0.dtd"
   xmlns="http://www.w3.org/2000/svg"
   xmlns:svg="http://www.w3.org/2000/svg"><sodipodi:namedview
     id="namedview7"
     pagecolor="#ffffff"
     bordercolor="#000000"
     borderopacity="0.25"
     inkscape:showpageshadow="2"
     inkscape:pageopacity="0.0"
     inkscape:pagecheckerboard="0"
     inkscape:deskcolor="#d1d1d1"
     inkscape:document-units="mm"
     showgrid="false"
     inkscape:zoom="1.0129433"
     inkscape:cx="327.75775"
     inkscape:cy="307.51969"
     inkscape:window-width="1920"
     inkscape:window-height="1109"
     inkscape:window-x="0"
     inkscape:window-y="0"
     inkscape:window-maximized="0"
     inkscape:current-layer="text287" /><defs
     id="defs2" /><g
     inkscape:label="Layer 1"
     inkscape:groupmode="layer"
     id="layer1"
     transform="translate(-25.238104,-89.977017)"><path
       style="fill:#357ecb;fill-opacity:1;stroke:#ffffff;stroke-width:0;stroke-miterlimit:4;stroke-dasharray:none;stroke-opacity:1"
       d="m 100.79011,89.990032 a 10.115404,10.032624 0 0 0 -3.876502,0.980966 L 44.015693,116.24618 a 10.115404,10.032624 0 0 0 -5.473136,6.80589 l -13.050272,56.77445 a 10.115404,10.032624 0 0 0 1.373357,7.69216 10.115404,10.032624 0 0 0 0.575052,0.7983 l 36.613832,45.52375 a 10.115404,10.032624 0 0 0 7.908646,3.77504 l 58.716058,-0.0135 a 10.115404,10.032624 0 0 0 7.90865,-3.76827 l 36.6003,-45.53054 a 10.115404,10.032624 0 0 0 1.95518,-8.49046 l -13.07058,-56.77444 a 10.115404,10.032624 0 0 0 -5.47313,-6.8059 L 105.69496,90.970998 a 10.115404,10.032624 0 0 0 -4.90485,-0.980966 z"
       id="path3055"
       inkscape:connector-curvature="0"
       inkscape:export-filename="new.png"
       inkscape:export-xdpi="250.55"
       inkscape:export-ydpi="250.55" /><g
       aria-label="eo"
       id="text287"
       style="font-size:83.4871px;fill:#ffffff;stroke-width:0.869655"><path
         d="m 99.951423,167.16189 c 0,-15.86254 -5.927584,-25.46356 -19.452494,-25.46356 -12.189116,0 -20.036903,9.35055 -20.036903,23.71034 0,14.35978 7.597326,23.20941 19.869929,23.20941 10.018452,0 16.947881,-5.67712 18.70111,-15.19465 h -7.012916 c -1.920203,5.76061 -5.844097,8.76614 -11.437733,8.76614 -8.098248,0 -12.690039,-6.09456 -12.857013,-15.02768 z m -32.059046,-5.67712 c 0.58441,-8.09825 5.510149,-13.35793 12.523065,-13.35793 7.179891,0 12.10563,5.84409 12.10563,13.35793 z"
         style="font-family:FreeSans;-inkscape-font-specification:FreeSans"
         id="path169" /><path
         d="m 124.66368,141.69833 c -12.2726,0 -19.70295,8.76615 -19.70295,23.45987 0,14.69373 7.34686,23.45988 19.78644,23.45988 12.2726,0 19.78644,-8.76615 19.78644,-23.12593 0,-15.11116 -7.26337,-23.79382 -19.86993,-23.79382 z m 0.0835,6.42851 c 7.84779,0 12.52307,6.4285 12.52307,17.28183 0,10.26891 -4.84226,16.7809 -12.52307,16.7809 -7.7643,0 -12.52306,-6.4285 -12.52306,-17.03137 0,-10.51937 4.75876,-17.03136 12.52306,-17.03136 z"
         style="font-family:FreeSans;-inkscape-font-specification:FreeSans"
         id="path171" /></g><g
       aria-label="API"
       transform="scale(0.9365497,1.067749)"
       id="text393"
       style="font-size:74.5946px;fill:#5e5e5e;stroke-width:0.777026"><path
         d="m 228.79173,164.22776 5.5946,16.33622 h 7.75784 l -19.09622,-54.37946 h -8.95135 l -19.3946,54.37946 h 7.38487 l 5.74378,-16.33622 z m -1.93946,-5.81838 h -17.30594 l 8.95135,-24.7654 z"
         style="font-family:FreeSans;-inkscape-font-specification:FreeSans"
         id="path174" /><path
         d="m 288.46744,142.14776 c 0,-10.21946 -6.04217,-15.96324 -16.78379,-15.96324 h -22.45297 v 54.37946 h 6.9373 v -23.04973 h 17.08216 c 8.95135,0 15.2173,-6.04216 15.2173,-15.36649 z m -32.29946,9.24973 v -19.09621 h 14.47135 c 6.63892,0 10.59243,3.58054 10.59243,9.5481 0,5.96757 -3.95351,9.54811 -10.59243,9.54811 z"
         style="font-family:FreeSans;-inkscape-font-specification:FreeSans"
         id="path176" /><path
         d="m 305.92257,126.18452 h -7.01189 v 54.37946 h 7.01189 z"
         style="font-family:FreeSans;-inkscape-font-specification:FreeSans"
         id="path178" /></g></g></svg>
