<?xml version="1.0" encoding="UTF-8" standalone="no"?>
<!-- Created with Inkscape (http://www.inkscape.org/) -->

<svg
   width="261.27359mm"
   height="147.63875mm"
   viewBox="0 0 261.27359 147.63874"
   version="1.1"
   id="svg5"
   xml:space="preserve"
   inkscape:version="1.2.2 (b0a8486541, 2022-12-01)"
   sodipodi:docname="eoapi-k8s.svg"
   xmlns:inkscape="http://www.inkscape.org/namespaces/inkscape"
   xmlns:sodipodi="http://sodipodi.sourceforge.net/DTD/sodipodi-0.dtd"
   xmlns="http://www.w3.org/2000/svg"
   xmlns:svg="http://www.w3.org/2000/svg"><sodipodi:namedview
     id="namedview7"
     pagecolor="#ffffff"
     bordercolor="#000000"
     borderopacity="0.25"
     inkscape:showpageshadow="2"
     inkscape:pageopacity="0.0"
     inkscape:pagecheckerboard="0"
     inkscape:deskcolor="#d1d1d1"
     inkscape:document-units="mm"
     showgrid="false"
     inkscape:zoom="0.27621126"
     inkscape:cx="564.78509"
     inkscape:cy="689.68948"
     inkscape:window-width="1920"
     inkscape:window-height="1127"
     inkscape:window-x="0"
     inkscape:window-y="0"
     inkscape:window-maximized="0"
     inkscape:current-layer="layer1" /><defs
     id="defs2" /><g
     inkscape:label="Layer 1"
     inkscape:groupmode="layer"
     id="layer1"
     transform="translate(-25.238104,-89.977017)"><path
       style="fill:#357ecb;fill-opacity:1;stroke:#ffffff;stroke-width:0;stroke-miterlimit:4;stroke-dasharray:none;stroke-opacity:1"
       d="m 100.79011,89.990032 a 10.115404,10.032624 0 0 0 -3.876502,0.980966 L 44.015693,116.24618 a 10.115404,10.032624 0 0 0 -5.473136,6.80589 l -13.050272,56.77445 a 10.115404,10.032624 0 0 0 1.373357,7.69216 10.115404,10.032624 0 0 0 0.575052,0.7983 l 36.613832,45.52375 a 10.115404,10.032624 0 0 0 7.908646,3.77504 l 58.716058,-0.0135 a 10.115404,10.032624 0 0 0 7.90865,-3.76827 l 36.6003,-45.53054 a 10.115404,10.032624 0 0 0 1.95518,-8.49046 l -13.07058,-56.77444 a 10.115404,10.032624 0 0 0 -5.47313,-6.8059 L 105.69496,90.970998 a 10.115404,10.032624 0 0 0 -4.90485,-0.980966 z"
       id="path3055"
       inkscape:connector-curvature="0"
       inkscape:export-filename="new.png"
       inkscape:export-xdpi="250.55"
       inkscape:export-ydpi="250.55" /><text
       xml:space="preserve"
       style="font-size:83.4871px;fill:#ffffff;stroke-width:0.869655"
       x="57.957413"
       y="186.69788"
       id="text287"><tspan
         sodipodi:role="line"
         id="tspan285"
         style="font-style:normal;font-variant:normal;font-weight:normal;font-stretch:normal;font-size:83.4871px;font-family:FreeSans;-inkscape-font-specification:FreeSans;fill:#ffffff;stroke-width:0.869655"
         x="57.957413"
         y="186.69788">eo</tspan></text><text
       xml:space="preserve"
       style="font-size:74.5946px;fill:#5e5e5e;fill-opacity:1;stroke-width:0.777026"
       x="193.58308"
       y="180.56398"
       id="text393"
       transform="scale(0.9365497,1.067749)"><tspan
         sodipodi:role="line"
         id="tspan391"
         style="font-style:normal;font-variant:normal;font-weight:normal;font-stretch:normal;font-family:FreeSans;-inkscape-font-specification:FreeSans;fill:#5e5e5e;fill-opacity:1;stroke-width:0.777026"
         x="193.58308"
         y="180.56398">API</tspan></text></g></svg>
