<?xml version="1.0" encoding="UTF-8" standalone="no"?>
<!DOCTYPE svg PUBLIC "-//W3C//DTD SVG 1.1//EN" "http://www.w3.org/Graphics/SVG/1.1/DTD/svg11.dtd">
<svg width="100%" height="100%" viewBox="0 0 188 32" version="1.1" xmlns="http://www.w3.org/2000/svg" xmlns:xlink="http://www.w3.org/1999/xlink" xml:space="preserve" xmlns:serif="http://www.serif.com/" style="fill-rule:evenodd;clip-rule:evenodd;stroke-linejoin:round;stroke-miterlimit:2;">
    <rect id="hor--pos" x="0" y="0" width="188" height="32" style="fill:none;"/>
    <g id="hor--pos1" serif:id="hor--pos">
        <g id="text">
            <path d="M49,6L49,10.9C49,10.8 48.2,10.8 47.9,10.7C47.6,10.7 47.3,10.6 46.8,10.6C46,10.6 45.2,10.7 44.6,11C44,11.3 43.5,11.7 43.1,12.2C42.7,12.7 42.4,13.4 42.2,14.2C42.1,15 42,15.9 42,16.8C42,18.7 42.3,20.2 43,21.2C43.7,22.2 44.7,22.7 45.9,22.7C46.7,22.7 47.3,22.6 47.8,22.3C48.3,22 48.7,21.8 49.1,21.1L49.2,22.9L51,22.9L51,6L49,6ZM49,17.5C49,18 48.9,18.5 48.8,19C48.7,19.5 48.5,19.9 48.2,20.2C48,20.5 47.7,20.8 47.3,21C47,21.2 46.6,21.3 46.2,21.3C45.4,21.3 44.8,20.9 44.4,20.1C44,19.3 43.8,18.2 43.8,16.6C43.8,15.1 44,14 44.5,13.2C44.9,12.4 45.7,12.1 46.7,12.1C47.2,12.1 47.6,12.1 48,12.2C48.4,12.3 49,12.4 49,12.5L49,17.5ZM58.8,22.3C58.1,22.6 57.3,22.8 56.5,22.8C55,22.8 53.9,22.4 53.2,21.5C52.5,20.6 52.1,19.2 52.1,17.3C52.1,15.1 52.5,13.4 53.3,12.3C54.1,11.2 55.2,10.6 56.6,10.6C58,10.6 59,11.1 59.8,12.1C60.5,13.1 60.8,14.7 60.7,16.8L54,16.8L54,17C54,18.6 54.2,19.7 54.7,20.4C55.2,21.1 55.8,21.4 56.7,21.4C57.2,21.4 57.8,21.3 58.3,21.1C58.8,20.9 59.4,20.6 60.1,20.1L60.8,21.3C60.1,21.7 59.5,22 58.8,22.3ZM58.2,12.9C57.8,12.3 57.2,12 56.5,12C55.8,12 55.2,12.3 54.8,12.9C54.4,13.5 54.2,14.4 54.1,15.5L58.8,15.5C58.8,14.4 58.6,13.5 58.2,12.9ZM69.2,13.6C69,14.5 68.7,15.4 68.4,16.4C68.1,17.3 67.8,18.3 67.5,19.4C67.2,20.4 66.9,21.5 66.5,22.6L64.7,22.6C64.3,21.4 64,20.3 63.6,19.3L62.7,16.3C62.4,15.4 62.2,14.4 61.9,13.6C61.7,12.7 61.5,11.8 61.3,11L63,11L64.2,15.8C64.6,17.4 65.1,19 65.6,20.7L66.9,15.9C67.3,14.3 67.7,12.7 68.1,11L69.7,11C69.7,11.8 69.5,12.7 69.2,13.6ZM77.1,22.3C76.4,22.6 75.6,22.8 74.8,22.8C73.3,22.8 72.2,22.4 71.5,21.5C70.8,20.6 70.4,19.2 70.4,17.3C70.4,15.1 70.8,13.4 71.6,12.3C72.4,11.2 73.5,10.6 74.9,10.6C76.3,10.6 77.3,11.1 78.1,12.1C78.8,13.1 79.1,14.7 79,16.8L72.3,16.8L72.3,17C72.3,18.6 72.5,19.7 73,20.4C73.5,21.1 74.1,21.4 75,21.4C75.5,21.4 76.1,21.3 76.6,21.1C77.1,20.9 77.7,20.6 78.4,20.1L79.1,21.3C78.4,21.7 77.8,22 77.1,22.3ZM76.5,12.9C76.1,12.3 75.5,12 74.8,12C74.1,12 73.5,12.3 73.1,12.9C72.7,13.5 72.5,14.4 72.4,15.5L77,15.5C77.1,14.4 76.9,13.5 76.5,12.9ZM80.5,22.6L80.5,6.5L82.2,6.5L82.2,22.6L80.5,22.6ZM88.1,22.8C86.6,22.8 85.5,22.3 84.8,21.4C84.1,20.4 83.7,18.9 83.7,16.9C83.7,14.8 84.1,13.3 84.8,12.2C85.5,11.2 86.7,10.7 88.3,10.7C89.8,10.7 90.9,11.2 91.6,12.2C92.3,13.2 92.6,14.7 92.6,16.7C92.6,20.8 91.1,22.8 88.1,22.8ZM90.2,13.2C89.8,12.4 89.1,12 88.1,12C87.2,12 86.6,12.4 86.2,13.1C85.8,13.9 85.6,15 85.6,16.6C85.6,18.3 85.8,19.5 86.2,20.2C86.6,20.9 87.3,21.3 88.2,21.3C89.8,21.3 90.7,19.8 90.7,16.7C90.7,15.1 90.5,13.9 90.2,13.2ZM102.4,21.1C101.6,22.2 100.4,22.8 98.7,22.8C98.3,22.8 97.9,22.8 97.6,22.7C97.3,22.7 97,22.6 96.5,22.5L96.5,26.4L94.8,26.4L94.8,10.9L96.3,10.9L96.4,12.4C96.8,11.7 97.2,11.3 97.7,11C98.2,10.7 98.8,10.6 99.6,10.6C100.9,10.6 101.8,11.1 102.5,12.1C103.2,13.1 103.5,14.6 103.5,16.5C103.5,18.5 103.2,20 102.4,21.1ZM101.1,13.3C100.7,12.5 100.1,12.1 99.3,12.1C98.9,12.1 98.5,12.2 98.2,12.4C97.9,12.6 97.6,12.9 97.4,13.2C97.2,13.5 97,13.9 96.8,14.4C96.6,14.9 96.6,15.3 96.6,15.9L96.6,21C96.9,21.1 97.2,21.2 97.6,21.3C98,21.4 98.4,21.4 98.9,21.4C99.9,21.4 100.6,21 101.1,20.3C101.6,19.6 101.8,18.4 101.8,16.9C101.7,15.2 101.5,14 101.1,13.3ZM117.6,22.6L117.6,14.7C117.6,13.9 117.5,13.2 117.4,12.7C117.3,12.2 116.9,12 116.3,12C115.9,12 115.5,12.1 115.1,12.4C114.7,12.7 114.2,13.1 113.5,13.6L113.5,22.5L111.8,22.5L111.8,14.7C111.8,13.9 111.7,13.2 111.6,12.7C111.5,12.2 111.1,12 110.5,12C110.1,12 109.7,12.1 109.3,12.4C108.9,12.7 108.4,13.1 107.7,13.6L107.7,22.5L106,22.5L106,10.9L107.5,10.9L107.6,12.3L109.3,11.1C109.8,10.8 110.4,10.6 111,10.6C111.7,10.6 112.2,10.8 112.5,11.1C112.8,11.4 113.1,11.8 113.3,12.4C113.9,11.9 114.5,11.5 115.1,11.2C115.7,10.9 116.2,10.7 116.8,10.7C117.8,10.7 118.4,11 118.8,11.6C119.2,12.2 119.3,13.1 119.3,14.4L119.3,22.6L117.6,22.6ZM127.5,22.3C126.8,22.6 126,22.8 125.2,22.8C123.7,22.8 122.6,22.4 121.9,21.5C121.2,20.6 120.8,19.2 120.8,17.3C120.8,15.1 121.2,13.4 122,12.3C122.8,11.2 123.9,10.6 125.3,10.6C126.7,10.6 127.7,11.1 128.5,12.1C129.2,13.1 129.5,14.7 129.4,16.8L122.7,16.8L122.7,17C122.7,18.6 122.9,19.7 123.4,20.4C123.9,21.1 124.5,21.4 125.4,21.4C125.9,21.4 126.5,21.3 127,21.1C127.5,20.9 128.1,20.6 128.8,20.1L129.5,21.3C128.8,21.7 128.1,22 127.5,22.3ZM126.8,12.9C126.4,12.3 125.8,12 125.1,12C124.4,12 123.8,12.3 123.4,12.9C123,13.5 122.8,14.4 122.7,15.5L127.4,15.5C127.4,14.4 127.2,13.5 126.8,12.9ZM136.9,22.5L136.9,14.7C136.9,13.9 136.8,13.2 136.6,12.7C136.4,12.2 136,12 135.4,12C135,12 134.6,12.1 134.2,12.4C133.8,12.7 133.2,13.1 132.6,13.6L132.6,22.5L130.9,22.5L130.9,10.9L132.4,10.9L132.5,12.3C133.1,11.9 133.7,11.5 134.2,11.1C134.8,10.8 135.3,10.6 135.9,10.6C136.9,10.6 137.6,10.9 137.9,11.5C138.3,12.1 138.5,13 138.5,14.3L138.5,22.5L136.9,22.5ZM144.7,22.8C144.1,22.8 143.5,22.7 143.1,22.6C142.7,22.5 142.4,22.2 142.2,21.9C142,21.6 141.8,21.2 141.8,20.6C141.7,20.1 141.7,19.4 141.7,18.7L141.7,12.3L140,12.3L140,10.9L141.7,10.9L141.7,7.7L143.4,7.5L143.4,10.9L145.8,10.9L145.7,12.3L143.5,12.3L143.5,19.8C143.5,20.2 143.6,20.5 143.7,20.7C143.8,20.9 144,21.1 144.2,21.2C144.4,21.3 144.7,21.4 145.1,21.4L145.6,21.4L146.1,21.3L146.3,22.7C145.7,22.7 145.2,22.8 144.7,22.8Z" style="fill:rgb(68,63,63);fill-rule:nonzero;"/>
            <path d="M157.4,20.4C157.2,20.9 156.9,21.3 156.5,21.6C156.1,21.9 155.6,22.2 155.1,22.4C154.5,22.6 153.9,22.7 153.3,22.7C151.8,22.7 150.8,22.4 150.1,21.8C149.4,21.2 149.2,20.3 149.3,19.3L150.8,19.1C150.8,19.4 150.8,19.6 150.9,19.9C151,20.2 151.1,20.4 151.3,20.6C151.5,20.8 151.8,21 152.1,21.1C152.5,21.2 152.9,21.3 153.5,21.3C154.3,21.3 154.9,21.1 155.4,20.7C155.9,20.3 156.1,19.7 156.1,19C156.1,18.4 155.9,17.9 155.6,17.6C155.3,17.2 154.9,17 154.4,16.7C153.9,16.5 153.4,16.2 152.8,16C152.2,15.8 151.7,15.5 151.2,15.2C150.7,14.9 150.3,14.5 150,14C149.7,13.5 149.5,12.9 149.5,12.1C149.5,11.6 149.6,11.1 149.8,10.6C150,10.2 150.3,9.8 150.6,9.5C151,9.2 151.4,9 151.9,8.8C152.4,8.6 153,8.6 153.7,8.6C154.4,8.6 155,8.7 155.4,8.9C155.9,9.1 156.3,9.3 156.6,9.6C156.9,9.9 157.1,10.2 157.2,10.6C157.3,11 157.4,11.4 157.4,11.8L155.9,12C155.9,11.7 155.9,11.5 155.8,11.2C155.7,11 155.6,10.7 155.4,10.6C155.2,10.4 155,10.3 154.7,10.2C154.4,10.1 154,10 153.6,10C153.2,10 152.8,10.1 152.5,10.2C152.2,10.3 151.9,10.5 151.7,10.6C151.5,10.8 151.3,11 151.2,11.2C151.1,11.4 151,11.7 151,12C151,12.6 151.2,13.1 151.5,13.4C151.8,13.8 152.3,14 152.8,14.3L154.4,15C155,15.2 155.5,15.5 156,15.8C156.5,16.1 156.9,16.5 157.3,17C157.6,17.5 157.8,18.1 157.8,18.9C157.7,19.4 157.6,19.9 157.4,20.4ZM159.7,22.6L159.7,8.9L166.6,8.9L166.5,10.3L161.4,10.3L161.4,14.8L165.4,14.8L165.4,16.2L161.4,16.2L161.4,21.2L166.7,21.2L166.7,22.6L159.7,22.6ZM168.8,22.6L168.8,8.9L175.7,8.9L175.6,10.3L170.5,10.3L170.5,14.8L174.5,14.8L174.5,16.2L170.5,16.2L170.5,21.2L175.8,21.2L175.8,22.6L168.8,22.6ZM186.8,18.4C186.5,19.3 186.1,20 185.6,20.6C185.1,21.2 184.4,21.7 183.7,22C182.9,22.3 182.1,22.5 181.1,22.5L178.2,22.5L178.2,8.9L181.1,8.9C183.1,8.9 184.7,9.5 185.7,10.7C186.7,11.9 187.2,13.5 187.2,15.6C187.2,16.6 187.1,17.5 186.8,18.4ZM184.4,11.7C183.7,10.7 182.6,10.2 181,10.2L179.9,10.2L179.9,21.1L181.3,21.1C182.7,21.1 183.7,20.6 184.4,19.7C185.1,18.8 185.5,17.4 185.5,15.7C185.4,14 185.1,12.7 184.4,11.7Z" style="fill:rgb(208,66,0);fill-rule:nonzero;"/>
        </g>
        <g id="symbol">
            <path id="surface" d="M30,0L2,0C0.9,0 0,0.9 0,2L0,30C0,31.1 0.9,32 2,32L30,32C31.1,32 32,31.1 32,30L32,2C32,0.9 31.1,0 30,0Z" style="fill:rgb(208,66,0);fill-rule:nonzero;"/>
            <g id="shape" transform="matrix(0.925342,0,0,0.925342,1.19453,2.38906)">
                <path d="M18.1,27.2C18.1,26.6 18.3,26 18.5,25.4C17.9,25.9 17.7,26.5 17.5,27.3C17.6,26.4 18,20.4 18,20.1C19.5,15.7 18.8,2.7 20.8,1C18.6,1.4 17.8,3.7 17.1,5.5C16.4,3.4 17,2 14.6,1.2C16.5,2.8 16.1,4.2 16.5,6.4C15.4,4.9 15.7,3.1 14.4,1.6C14,1.2 12.8,0.3 12.8,0.3C12.8,0.4 13.8,2.3 14,3.4C14.2,4.4 14.6,6.5 14.6,7.3C14.8,11.5 15.8,15.6 16.6,19.8C16.7,20.5 17.1,22.6 17.1,22.6L17.2,23.5C17.1,22.9 16.9,22.4 16.9,22.2C16.7,21.6 16.2,20 16,19.3C14.2,15.6 11,8.5 6.6,7.4C9.1,9.6 11.7,12.5 12.3,15.3C11,13.4 5.8,9.5 3.6,8C7.6,12.1 10.8,16.4 14.3,21C15.3,22.3 16.6,25 16.7,25.6C16.8,26 16.8,27.7 16.9,28.7C15,24 13.9,21.6 10.3,19.5C9.7,19.2 7.8,18.5 7.8,18.5C8.7,19.5 9.7,19.5 10.5,20.8C8.9,19.7 7.2,19.5 5.3,19.5C11.3,22.6 14.5,23.5 16.5,29.4C16.7,30.4 16.4,31 16.4,32L17.7,32L17.7,30.6C17.8,30.2 17.8,28.9 18,28.6C18.6,27 19.6,26.3 21.1,25.3C19.7,25.8 19.1,25.6 18.1,27.2ZM24,13.2C23.5,13.7 22,15.5 22,15.5C22.1,12.9 22.7,10.1 24.4,8.1C22.1,9.6 20.8,13.4 20.1,15.7C19.9,16.6 17.1,22 18.4,24.9C18.6,23.8 19.2,22.8 19.9,21.9C20.2,21.5 21.5,19.4 22.8,16.5C23.9,13.6 25.8,11.8 28.4,10.4C26.5,10.7 25.4,11.8 24,13.2Z" style="fill:white;fill-rule:nonzero;"/>
            </g>
        </g>
    </g>
</svg>
